<?xml version="1.0" encoding="iso-8859-1"?>
<!-- Generator: Adobe Illustrator 19.0.0, SVG Export Plug-In . SVG Version: 6.00 Build 0)  -->
<svg version="1.1" id="Layer_1" xmlns="http://www.w3.org/2000/svg" xmlns:xlink="http://www.w3.org/1999/xlink" x="0px" y="0px"
	 viewBox="0 0 488 488" style="enable-background:new 0 0 488 488;" xml:space="preserve">
<g>
	<g>
		<path d="M478,156.6h-62V20h2.6c5.5,0,10-4.5,10-10s-4.5-10-10-10h-108c-5.5,0-10,4.5-10,10s4.5,10,10,10h1.7v136.6h-62
			c-5.5,0-10,4.5-10,10V288H200v-37.7c0-5.5-4.5-10-10-10h-72c-5.5,0-10,4.5-10,10V288H10c-5.5,0-10,4.5-10,10v180
			c0,5.5,4.5,10,10,10h288h180c5.5,0,10-4.5,10-10V166.6C488,161.1,483.5,156.6,478,156.6z M128,260.3h52V288h-52V260.3z M60.3,468
			H20V308h40.3V468z M228.6,468H80.3V308h148.3V468z M332.3,20H396v136.6h-63.7V20z M288,468L288,468h-39.4V308h1.7H288V468z
			 M468,468H308v-27.7h122.3c5.5,0,10-4.5,10-10V334c0-5.5-4.5-10-10-10H308v-26c0-5.5-4.5-10-10-10h-37.7v-28.1
			c0.8,0.2,1.7,0.4,2.6,0.4H468V468z M308,420.3V344h112.3v76.3H308z M468,240.3H262.9c-0.9,0-1.8,0.1-2.6,0.4v-64.1H468V240.3z"/>
	</g>
</g>
<g>
</g>
<g>
</g>
<g>
</g>
<g>
</g>
<g>
</g>
<g>
</g>
<g>
</g>
<g>
</g>
<g>
</g>
<g>
</g>
<g>
</g>
<g>
</g>
<g>
</g>
<g>
</g>
<g>
</g>
</svg>
